<?xml version="1.0" encoding="utf-8"?>
<!-- Generator: Adobe Illustrator 27.9.0, SVG Export Plug-In . SVG Version: 6.00 Build 0)  -->
<svg version="1.1" id="레이어_1" xmlns="http://www.w3.org/2000/svg" xmlns:xlink="http://www.w3.org/1999/xlink" x="0px"
	 y="0px" viewBox="0 0 363.05 256.35" style="enable-background:new 0 0 363.05 256.35;" xml:space="preserve">
<style type="text/css">
	.st0{fill:#FFFFFF;stroke:#000000;stroke-miterlimit:10;}
	.st1{fill:#85BADB;}
	.st2{fill:#83B4D2;}
</style>
<path class="st0" d="M-15.23-73.89"/>
<rect x="-10.37" y="-86.86" style="fill:none;" width="67.3" height="25.95"/>
<g>
	<path class="st1" d="M78.81,85.81c-15.42,6.2-28.29,21.96-32.97,27.88c0,0-16.8,22.6-18.12,38.47c-0.13,1.53-0.01,3.39,1.33,4.12
		c0.95,0.52,2.07,0.27,2.49,0.16c6.28-1.66,26.81-36.17,45.28-48.89c1.32-0.91,7.55-5.09,10.61-12.72c0.5-1.25,2.98-7.43,0.52-9.77
		C86.88,84.04,84.56,83.49,78.81,85.81z"/>
	<g>
		<path class="st2" d="M78.14,83.4c-8.43,3.43-15.75,9-22.25,15.3c-4.4,4.26-8.6,8.89-12.27,13.82c-2.66,3.58-5.07,7.38-7.35,11.22
			c-3.96,6.68-7.63,13.78-9.73,21.29c-0.53,1.88-0.91,3.78-1.16,5.71c-0.26,2.02-0.4,4.26,0.73,6.07c1.85,2.95,5.8,2.76,8.33,0.9
			c4.22-3.1,7.44-7.73,10.65-11.79c4.82-6.1,9.54-12.26,14.57-18.19c4.97-5.86,10.2-11.68,16.27-16.43c1.86-1.46,4.2-2.94,6.08-4.64
			c3.08-2.77,5.68-6.18,7.34-9.99c1.37-3.15,2.62-6.73,2-10.2c-0.6-3.37-3.61-5.01-6.82-4.75C82.31,81.9,80.21,82.58,78.14,83.4
			c-1.25,0.5-2.13,1.67-1.75,3.08c0.33,1.19,1.81,2.25,3.08,1.75c1.05-0.41,2.11-0.8,3.2-1.1c0.43-0.12,0.86-0.22,1.29-0.31
			c0.65-0.13,0.34-0.1,0.94-0.12c0.29-0.01,0.58,0,0.87,0.01c0.17,0.01,0.43,0.12-0.11-0.02c0.04,0.01,0.33,0.08,0.33,0.08
			c0.01-0.01,0.2,0.07,0.22,0.07c0.23,0.03-0.18-0.14-0.19-0.08c-0.05,0.32,0.89,0.06,0.08,0c0.24,0.02,0.25,0.27,0.29,0.38
			c-0.1-0.26,0.12,0.48,0.14,0.66c-0.02-0.18-0.01,0.57-0.01,0.76c-0.02,0.47-0.06,0.8-0.12,1.14c-0.26,1.38-0.69,2.73-1.2,4.04
			c-1.26,3.24-3.33,6.11-5.8,8.52c-0.51,0.5-1.04,0.98-1.59,1.44c-0.24,0.2-0.48,0.39-0.72,0.59c-0.43,0.35,0.14-0.09-0.36,0.28
			c-0.81,0.59-1.64,1.14-2.44,1.74c-5.84,4.31-10.91,9.56-15.68,15c-4.9,5.58-9.48,11.42-14.06,17.26c-3.5,4.46-6.9,9.1-10.88,13.16
			c-0.62,0.64-1.29,1.21-1.95,1.81c-0.3,0.27,0.5-0.32-0.02,0.01c-0.13,0.08-0.26,0.18-0.39,0.26c-0.12,0.07-0.26,0.13-0.37,0.21
			c-0.4,0.28,0.45-0.08,0.13-0.04c-0.17,0.02-0.34,0.11-0.51,0.13c-0.23,0.03,0.07,0.06-0.24-0.01c-0.49-0.11,0.03,0.08,0,0.03
			c-0.2-0.28-0.14-1.19-0.12-1.64c0.08-1.52,0.34-2.85,0.73-4.48c1.66-6.95,4.9-13.47,8.42-19.64c2.47-4.33,5.15-8.55,8.05-12.6
			c0.19-0.27,0.39-0.54,0.58-0.81c-0.54,0.76,0.13-0.16,0.36-0.44c0.38-0.47,0.76-0.95,1.14-1.42c1.99-2.44,4.06-4.82,6.22-7.11
			c5.45-5.79,11.48-11.17,18.41-15.13c1.72-0.99,3.5-1.9,5.34-2.65c1.25-0.51,2.13-1.66,1.75-3.08
			C80.89,83.96,79.4,82.88,78.14,83.4z"/>
	</g>
</g>
<g>
	<path class="st1" d="M63.83,131.39c-2.06,3.64,2.45,9.97,11.57,22.46c0.37,0.51,6.72,8.43,12.53,10.36
		c1.36,0.45,3.05,0.65,4.06-0.38c0.72-0.73,0.84-1.86,0.78-2.89c-0.26-5-6.96-12.65-8.63-14.64c-9.28-11.05-9.36-17.9-14.46-18.05
		C67.43,128.18,64.94,129.44,63.83,131.39z"/>
	<g>
		<path class="st2" d="M61.67,130.13c-1.2,2.2-0.93,4.71-0.05,6.97c1.28,3.31,3.3,6.3,5.3,9.2c4.42,6.42,8.82,12.88,15.18,17.55
			c3.2,2.35,9.59,5.5,12.35,0.84c2.18-3.68-0.16-8.45-2.14-11.67c-1.78-2.9-3.93-5.56-6.13-8.16c-2.81-3.33-5.22-6.93-7.4-10.71
			c-1.49-2.58-2.93-5.79-5.58-7.4C69.3,124.38,63.93,126.43,61.67,130.13c-1.68,2.75,2.64,5.27,4.32,2.52
			c0.8-1.3,2.22-1.86,3.69-1.91c0.09,0,0.17,0.02,0.26,0.01c0.34-0.02-0.48-0.12-0.17-0.03c0.17,0.05,0.36,0.09,0.54,0.13
			c0.27,0.06-0.36-0.27,0.11,0.05c0.1,0.07,0.69,0.46,0.4,0.23c-0.3-0.23,0.15,0.14,0.24,0.23c0.16,0.16,0.32,0.33,0.47,0.5
			c0.06,0.07,0.12,0.14,0.17,0.21c0.22,0.27-0.25-0.35-0.05-0.06c0.18,0.25,0.35,0.5,0.52,0.75c0.7,1.06,1.31,2.17,1.95,3.27
			c1.95,3.4,4.06,6.68,6.47,9.79c1.74,2.24,3.71,4.41,5.31,6.59c1.82,2.48,3.74,5.19,4.34,8.17c0.1,0.52,0.03,0.21,0.02,0.09
			c0.02,0.19,0.03,0.4,0.03,0.59c0,0.15,0.05,0.61-0.06,0.73c-0.19,0.2-0.83,0.01-1.1-0.06c-1.52-0.39-2.9-1.27-4.21-2.21
			c-2.49-1.78-4.69-4.06-6.68-6.37c-0.26-0.31-0.52-0.62-0.78-0.93c-0.09-0.11-0.32-0.47-0.02-0.02c0.37,0.54,0.01,0.01-0.01-0.03
			c-0.23-0.33-0.48-0.66-0.72-0.99c-1.35-1.85-2.69-3.69-4.01-5.56c-2.12-2.99-4.31-6.03-5.91-9.35c-0.06-0.12-0.45-1.01-0.25-0.52
			c-0.1-0.25-0.2-0.5-0.29-0.76c-0.18-0.51-0.29-1.03-0.4-1.56c0.12,0.57,0.02,0.11,0.01-0.19c0-0.28,0.16-0.85-0.04-0.12
			c0.05-0.17,0.09-0.36,0.12-0.53c0.11-0.61-0.23,0.4,0.07-0.14C67.53,129.82,63.21,127.3,61.67,130.13z"/>
	</g>
</g>
<g>
	<path class="st1" d="M129.12,104.23c0.93-5.15,2.58-25.44,1.76-29.06c-0.95-4.22-6.43-3.96-9.28-3.63
		c-4.25,0.48-3.89,12.99-10.57,47.61c0,0-1.2,6.21-3,22.93c-1.33,12.3-1.48,17.95,2.1,22.35c2.68,3.29,8.83-1.59,8.83-1.59
		s4.01-7.01,5.1-15.58c1.19-9.34,1.35-17.73,1.07-24.8c7.48-1.65,15.06-2.84,22.69-3.54c-3.22,20.87-3.98,42.11-2.24,63.15
		c0.2,2.47,0.48,5.04,1.81,7.13c1.34,2.09,4.07,3.49,6.35,2.52c2.03-0.87,2.96-3.18,3.58-5.29c2.47-8.41,3.22-17.22,3.95-25.96
		c1.5-17.92,3.01-35.83,4.51-53.75c0.87-10.32,1.73-20.68,1.38-31.03c-0.1-3.05-0.38-6.28-2.22-8.71c-1.84-2.43-5.78-3.49-7.96-1.36
		c-1.19,1.16-1.55,2.91-1.85,4.54c-1.46,7.9-2.92,15.81-4.38,23.71c-0.41,2.24-0.51,5.34-2.64,6.14
		C143.15,101.89,128.46,106.64,129.12,104.23"/>
	<g>
		<path class="st2" d="M131.53,104.9c1.09-6.16,1.45-12.51,1.81-18.74c0.17-2.98,0.34-5.99,0.23-8.97
			c-0.13-3.38-1.36-6.21-4.69-7.54c-2.37-0.95-5.92-1.19-8.41-0.41c-1.38,0.43-2.43,1.53-3.09,2.78c-1.8,3.43-2.22,7.65-2.83,11.4
			c-1.25,7.63-2.38,15.27-3.7,22.89c-0.95,5.45-2.1,10.87-2.91,16.35c-1.29,8.71-2.42,17.5-3.07,26.28
			c-0.27,3.67-0.44,7.46,0.39,11.07c0.67,2.9,2.36,6.62,5.35,7.71c3.08,1.12,6.59-0.57,9.08-2.33c1.77-1.25,2.44-3.19,3.27-5.14
			c4.1-9.64,4.71-20.33,4.79-30.7c0.02-2.36-0.03-4.72-0.12-7.08c-0.61,0.8-1.22,1.61-1.84,2.41c7.27-1.6,14.62-2.76,22.03-3.45
			c-0.8-1.05-1.61-2.11-2.41-3.16c-3.19,20.78-4.06,41.88-2.41,62.84c0.36,4.52,0.88,9.44,5.01,12.16c4.02,2.65,8.76,0.8,10.69-3.39
			c2-4.37,2.76-9.48,3.46-14.21c0.75-5.12,1.2-10.28,1.63-15.43c1.77-21.11,3.76-42.21,5.28-63.34c0.38-5.25,0.66-10.51,0.67-15.77
			c0.02-4.62,0.3-9.81-1.81-14.06c-1.78-3.58-6.17-6.05-10.15-4.74c-4.89,1.6-5.12,7.54-5.9,11.79c-0.95,5.16-1.91,10.32-2.86,15.49
			c-0.39,2.09-0.68,4.22-1.12,6.3c-0.16,0.75-0.32,1.25-0.65,1.83c0.17-0.31-0.32,0.12,0.04-0.04c-0.26,0.12-0.55,0.2-0.82,0.3
			c-2.63,0.96-5.3,1.82-7.99,2.62c-1.44,0.43-2.9,0.83-4.36,1.18c-0.64,0.15-1.28,0.3-1.92,0.42c-0.28,0.05-0.57,0.1-0.86,0.15
			c-0.06,0.01-0.4,0.06-0.06,0.01c0.38-0.05-0.14,0.02-0.22,0.02c-0.39,0.03-0.79-0.01-1.17,0.02c0,0,0.68,0.13,0.35,0.04
			c-0.12-0.03-0.2-0.11,0.13,0.07C131.27,102.96,131.76,103.83,131.53,104.9c0.67-3.14-4.15-4.48-4.82-1.33
			c-0.63,2.95,2.13,4.02,4.53,3.77c2.67-0.28,5.3-1,7.87-1.74c2.72-0.78,5.42-1.65,8.09-2.6c1.33-0.47,2.73-0.88,3.72-1.94
			c1.27-1.36,1.72-3.2,2-4.98c0.76-4.73,1.7-9.42,2.57-14.13c0.45-2.42,0.89-4.84,1.34-7.26c0.39-2.11,0.52-4.58,1.4-6.55
			c0.56-1.26,1.65-1.39,2.83-0.99c1.37,0.47,2.25,1.57,2.76,2.9c0.71,1.87,0.79,3.91,0.85,5.88c0.08,2.55,0.09,5.1,0.04,7.64
			c-0.18,10.14-1.19,20.26-2.04,30.36c-0.86,10.2-1.71,20.4-2.57,30.61c-0.83,9.91-1.32,19.93-2.77,29.78
			c-0.36,2.44-0.79,4.87-1.34,7.28c-0.45,1.95-0.85,4.06-1.68,5.9c-0.53,1.16-1.36,2.37-2.77,1.93c-1.61-0.5-2.44-1.98-2.87-3.52
			c-0.57-2.03-0.63-4.19-0.78-6.29c-0.19-2.53-0.33-5.06-0.45-7.6c-0.22-4.99-0.31-9.98-0.25-14.97
			c0.11-10.15,0.79-20.29,2.05-30.36c0.3-2.38,0.63-4.75,1-7.12c0.22-1.44-0.62-3.33-2.41-3.16c-7.85,0.73-15.65,1.94-23.36,3.63
			c-1.03,0.23-1.88,1.36-1.84,2.41c0.18,4.66,0.16,9.33-0.09,13.98c-0.27,5.11-0.6,10.34-1.9,15.31c-0.85,3.25-1.96,6.23-3.47,9.15
			c-0.08,0.16-0.33,0.46-0.34,0.64c0.02-0.3,1.32-1.13,0.41-0.51c-0.43,0.3-0.87,0.59-1.32,0.85c-0.27,0.16-0.55,0.31-0.83,0.45
			c-0.15,0.08-0.3,0.15-0.45,0.22c-0.21,0.1,0.16-0.05-0.22,0.1c-0.32,0.12-0.64,0.23-0.97,0.31c-0.16,0.04-0.33,0.08-0.49,0.11
			c0.41-0.07,0.01-0.01-0.07,0c-0.15,0.01-0.32,0.01-0.48,0c0.48,0.03-0.01,0.01-0.14-0.05c-0.36-0.17,0.31,0.19-0.04-0.02
			c-0.2-0.12,0.14,0.16-0.16-0.13c-0.11-0.11-0.21-0.24-0.31-0.37c0.29,0.35,0.05,0.06,0-0.02c-0.16-0.24-0.32-0.47-0.47-0.72
			c-0.15-0.24-0.29-0.5-0.41-0.75c-0.06-0.13-0.13-0.26-0.19-0.39c-0.3-0.64,0.16,0.46-0.08-0.21c-1.04-2.88-1.03-5.36-0.9-8.6
			c0.19-4.74,0.78-9.46,1.32-14.17c0.42-3.71,0.91-7.74,1.38-11.12c0.56-4,1.29-7.94,2.02-11.92c1.51-8.15,2.83-16.33,4.11-24.52
			c0.71-4.54,1.25-9.19,2.5-13.62c0.09-0.32,0.18-0.64,0.29-0.95c0.05-0.14,0.1-0.28,0.15-0.43c0.04-0.11,0.26-0.67,0.07-0.19
			c-0.18,0.45,0.14-0.3,0.23-0.46c0.08-0.15,0.34-0.42,0.36-0.58c-0.08,0.49-0.4,0.37,0.03,0.03c0.36-0.29-0.65,0.35,0,0.03
			c0.36-0.17-0.7,0.27-0.33,0.14c0.07-0.03,0.15-0.05,0.23-0.06c0.21-0.04-0.93,0.09-0.14,0.02c0.35-0.03,0.7-0.07,1.05-0.09
			c0.74-0.05,1.49-0.06,2.24-0.01c0.69,0.05,1.03,0.08,1.86,0.37c0.36,0.13,0.73,0.32,1.06,0.71c-0.26-0.3,0.31,0.58,0.18,0.28
			c0.09,0.22,0.09,0.68,0.22,0.87c-0.24-0.33-0.05-0.57-0.02-0.05c0.01,0.2,0.03,0.4,0.04,0.6c0.03,0.55,0.04,1.1,0.05,1.65
			c0.01,1.35-0.02,2.69-0.07,4.04c-0.23,6.25-0.71,12.52-1.46,18.74c-0.04,0.31-0.08,0.62-0.12,0.93c-0.08,0.67,0.06-0.36-0.04,0.26
			c-0.07,0.43-0.13,0.85-0.2,1.27c-0.24,1.33,0.36,2.69,1.75,3.08C129.66,106.98,131.29,106.23,131.53,104.9L131.53,104.9z"/>
	</g>
</g>
<g>
	<path class="st1" d="M249.91,42.33c-4,0-39.01,7.02-36.09,14.03c2.89,6.94,9.95,1.24,18.72,1.08c1.5-0.03,3.66-0.07,4.17,0.83
		c1.16,2.07-7.86,6.59-17.65,15.11c-1.9,1.65-3.51,3.71-4.93,5.54c-1.62,2.09,0.12,4.85,3.09,4.91c5.19,0.11,10.38,0.21,15.56,0.32
		c-9.49,8.56-15.8,15.1-20.9,21.02c-0.5,0.58-5.29,5.55-5.33,6.26c-0.14,2.7,2.52,5.32,5.28,5.42c12.54,0.45,25.13-0.01,37.57-1.38
		c-1.94,7.39-3.88,14.77-5.81,22.16c-0.39,1.5-0.82,3.06-1.99,4.24c-1.28,1.29-3.25,1.92-5.12,2.5
		c-10.03,3.11-26.22-1.55-28.33,7.22c-0.89,3.7,1.59,6.95,6.4,7.3c36.89,2.67,74.11-1.96,110.51-7.62c3.26-0.51,5.81-2.83,5.83-5.61
		c0.03-4.66-6.76-5.55-11.82-5.35c-20.88,0.84-41.76,1.67-62.64,2.51c2.68-6.7,4.63-12.04,5.87-15.51
		c2.48-6.96,3.01-9.04,5.66-10.44c4.21-0.03,10.47,0.4,13.78-2.53c1.62-1.43,1.82-3.52,1.72-5.11c-5.54-1.52-12.66-3.01-21.06-3.66
		c-10.74-0.83-19.88,0-26.57,1.05c2.9-3.82,5.8-7.63,8.69-11.45c2.64-3.47,5.37-7.2,5.35-11.31c-0.02-4.12-4.07-8.49-8.94-7.91
		c3.45-1.72,6.75-3.66,9.87-5.79c3.99-2.73,6.55-4.99,8.74-6.94c7.18-6.39,7.91-8.87,8.03-10.4c0.06-0.69,0.22-2.59-1.13-4.27
		C266.46,48.56,260.4,42.33,249.91,42.33"/>
	<g>
		<path class="st2" d="M249.91,39.83c-2.14,0.02-4.33,0.52-6.43,0.91c-3.49,0.65-6.95,1.43-10.38,2.32
			c-3.68,0.95-7.34,2.02-10.89,3.38c-3.01,1.15-6.1,2.43-8.59,4.52c-2.34,1.97-3.09,4.62-1.62,7.37c2.59,4.86,7.82,4.15,12.35,3.03
			c2.45-0.6,4.9-1.26,7.42-1.4c0.31-0.02,3.33,0.02,3.3,0.09c-0.06,0.15-0.67-0.86-0.7-0.96c0.01,0.03-0.07-0.75-0.06-0.4
			c-0.01-0.39,0.38-1.1-0.06-0.33c0.32-0.56-0.04,0.02-0.26,0.24c-0.24,0.24-0.5,0.47-0.75,0.69c-0.87,0.75-1.32,1.08-2.25,1.76
			c-2.33,1.72-4.69,3.39-6.99,5.15c-3.09,2.35-6.31,4.71-8.91,7.61c-2.1,2.34-5.03,5.21-3.74,8.63c0.63,1.65,1.94,2.84,3.59,3.46
			c1.63,0.61,3.49,0.45,5.2,0.48c4.22,0.09,8.43,0.17,12.65,0.26c-0.59-1.42-1.18-2.85-1.77-4.27c-4.72,4.27-9.36,8.64-13.78,13.22
			c-2.88,2.98-5.57,6.13-8.39,9.17c-1.33,1.44-2.68,2.87-3.86,4.44c-1.49,1.97-0.97,4.56,0.4,6.5c0.82,1.17,1.9,2.15,3.18,2.79
			c1.68,0.84,3.41,0.86,5.25,0.91c3.63,0.1,7.27,0.13,10.9,0.08c8.25-0.11,16.49-0.63,24.69-1.52c-0.8-1.05-1.61-2.11-2.41-3.16
			c-1.39,5.3-2.78,10.6-4.17,15.9c-0.65,2.46-1.21,4.96-1.96,7.39c-0.58,1.88-1.74,2.74-3.55,3.38c-6.45,2.26-13.23,1.34-20.03,2.05
			c-3.07,0.32-6.23,0.89-8.69,2.88c-2.49,2-3.65,5.47-2.9,8.58c1,4.12,4.93,6.07,8.84,6.42c5.37,0.48,10.79,0.62,16.18,0.72
			c21.31,0.39,42.6-1.34,63.73-3.99c5.42-0.68,10.84-1.42,16.25-2.19c2.59-0.37,5.18-0.75,7.76-1.14c2.59-0.39,5.26-0.65,7.81-1.22
			c4.16-0.93,7.71-4.67,6.99-9.12c-0.58-3.59-4.08-5.46-7.33-6.14c-4.22-0.88-8.56-0.44-12.83-0.27
			c-5.47,0.22-10.94,0.44-16.41,0.66c-10.77,0.43-21.54,0.86-32.31,1.29c-2.65,0.11-5.3,0.21-7.95,0.32
			c0.8,1.05,1.61,2.11,2.41,3.16c2.02-5.05,3.95-10.14,5.78-15.27c0.77-2.15,1.62-4.86,2.45-6.62c0.17-0.37,0.36-0.74,0.57-1.09
			c0.09-0.14,0.18-0.28,0.27-0.42c0.34-0.52-0.34,0.34,0.07-0.09c0.21-0.22,0.42-0.43,0.65-0.63c-0.5,0.42,0.42-0.23,0.59-0.33
			c-0.42,0.11-0.84,0.23-1.26,0.34c3.76-0.02,7.7,0.21,11.33-0.94c1.99-0.63,3.9-1.68,5.16-3.39c1.23-1.67,1.62-3.76,1.52-5.8
			c-0.06-1.1-0.74-2.11-1.84-2.41c-15.94-4.34-32.65-5.15-48.96-2.61c0.94,1.22,1.88,2.45,2.82,3.67c2.7-3.55,5.4-7.11,8.09-10.66
			c2.34-3.08,4.85-6.26,5.85-10.08c0.92-3.51,0.24-6.96-2.05-9.78c-2.13-2.64-5.54-4.23-8.95-3.91c0.42,1.55,0.84,3.11,1.26,4.66
			c5.54-2.78,10.76-6.14,15.56-10.06c3.68-3.01,7.41-6.22,10.24-10.07c1.51-2.05,2.35-4.35,2.05-6.92c-0.4-3.39-2.55-5.18-5.21-6.91
			C260.41,41.3,255.16,39.88,249.91,39.83c-3.22-0.03-3.22,4.97,0,5c4.05,0.03,7.96,1.04,11.39,3.02c0.59,0.34,1.16,0.7,1.72,1.09
			c0.23,0.16,0.45,0.33,0.68,0.49c0.3,0.22-0.46-0.38-0.06-0.05c0.1,0.09,0.21,0.17,0.32,0.26c0.2,0.17,0.41,0.34,0.59,0.53
			c0.04,0.04,0.09,0.08,0.13,0.12c-0.28-0.31,0.24,0.52,0.31,0.73c0.19,0.61,0.08,1.22,0.09,1.86c0.01,0.51,0.19-0.62,0.02-0.19
			c-0.06,0.16-0.09,0.37-0.13,0.54c-0.04,0.15-0.11,0.3-0.16,0.45c0.21-0.74,0.05-0.13-0.07,0.1c-0.27,0.52-0.59,1-0.92,1.47
			c-0.35,0.5-0.06,0.12-0.41,0.53c-0.27,0.32-0.54,0.64-0.82,0.96c-0.74,0.83-1.52,1.62-2.32,2.4c-1.67,1.61-3.41,3.16-5.19,4.65
			c-4.69,3.95-9.92,7.23-15.39,9.98c-2.15,1.08-1.21,4.89,1.26,4.66c2.29-0.22,4.37,0.77,5.59,2.75c1.31,2.13,0.9,4.49-0.2,6.72
			c-1.5,3.03-3.73,5.67-5.76,8.35c-2.3,3.03-4.6,6.05-6.9,9.08c-0.59,0.78-0.36,2.08,0.2,2.78c0.67,0.85,1.59,1.06,2.63,0.9
			c15.39-2.4,31.28-1.48,46.3,2.61c-0.61-0.8-1.22-1.61-1.84-2.41c0.06,1.2,0.01,2.54-0.97,3.35c-1.15,0.95-2.78,1.32-4.22,1.54
			c-1.54,0.24-3.13,0.25-4.69,0.26c-1.64,0.01-3.44-0.29-4.88,0.63c-2.1,1.34-3.2,3.38-4.11,5.62c-1.22,2.99-2.2,6.08-3.31,9.12
			c-1.52,4.16-3.11,8.3-4.75,12.41c-0.6,1.5,0.92,3.22,2.41,3.16c20.38-0.82,40.76-1.63,61.15-2.45c1.83-0.07,3.65-0.13,5.47,0.04
			c0.65,0.06,1.32,0.17,2.01,0.34c0.34,0.08,0.68,0.18,1.02,0.28c0.44,0.14,0.61,0.21,0.85,0.34c0.62,0.32,0.84,0.46,1.15,0.82
			c-0.22-0.27,0.23,0.36,0.28,0.49c-0.18-0.45,0.05,0.67,0.02,0.21c0.1,1.25-0.82,2.24-1.99,2.86c-1.83,0.98-4.33,0.97-6.35,1.28
			c-2.42,0.37-4.85,0.73-7.27,1.09c-4.96,0.73-9.93,1.43-14.91,2.07c-19.99,2.59-40.11,4.42-60.27,4.48
			c-4.99,0.01-9.98-0.08-14.96-0.3c-2.53-0.11-5.07-0.25-7.59-0.44c-1.48-0.11-2.94-0.46-3.87-1.49c-0.61-0.67-0.84-1.66-0.61-2.68
			c0.06-0.27,0.14-0.53,0.24-0.79c0.1-0.27-0.01,0.04-0.03,0.08c0.06-0.13,0.13-0.26,0.21-0.39c0.07-0.13,0.15-0.24,0.23-0.36
			c-0.05,0.08-0.32,0.35,0,0c0.19-0.21,0.39-0.41,0.6-0.6c0.34-0.31,0.08-0.06,0-0.01c0.12-0.08,0.24-0.17,0.36-0.24
			c0.23-0.13,0.45-0.25,0.68-0.38c0.06-0.03,0.49-0.22,0.22-0.11c-0.24,0.1,0.12-0.04,0.14-0.05c0.34-0.13,0.69-0.24,1.04-0.34
			c1.45-0.4,2.41-0.52,3.76-0.63c6.35-0.54,12.95,0.2,19.13-1.67c2.07-0.63,4.14-1.37,5.82-2.78c1.72-1.45,2.48-3.6,3.04-5.71
			c1.32-4.97,2.61-9.96,3.92-14.93c0.63-2.41,1.26-4.82,1.9-7.23c0.37-1.43-0.75-3.35-2.41-3.16c-6.72,0.73-13.47,1.21-20.23,1.42
			c-3.47,0.11-6.93,0.15-10.4,0.11c-1.49-0.01-2.97-0.04-4.46-0.08c-1.28-0.03-2.73,0.17-3.84-0.59c-0.32-0.22-0.64-0.48-0.88-0.8
			c-0.06-0.08-0.64-1.29-0.56-1.27c0.01,0-0.04,0.24-0.06,0.27c-0.88,1.05,0.02,0.31-0.06,0.23c0,0,0.19-0.28,0.17-0.25
			c0.22-0.34-0.26,0.3,0.15-0.19c1.12-1.31,2.27-2.59,3.45-3.85c2.64-2.84,5.15-5.79,7.84-8.59c4.5-4.68,9.21-9.13,14.03-13.48
			c1.66-1.5,0.3-4.23-1.77-4.27c-3.57-0.07-7.13-0.14-10.7-0.22c-1.59-0.03-3.28,0.09-4.86-0.1c-0.39-0.05-0.58-0.09-0.9-0.27
			c-0.21-0.12-0.21-0.18-0.33-0.44c0.11,0.26,0.15-0.18,0.01,0.01c-0.08,0.11-0.21,0.18,0.1-0.19c0.38-0.45,0.72-0.95,1.09-1.41
			c1.02-1.26,2.09-2.49,3.29-3.59c2.43-2.22,5.07-4.23,7.72-6.2c2-1.48,4.04-2.92,6.02-4.42c1.34-1.01,2.78-2.02,3.85-3.32
			c1.23-1.5,1.81-3.62,0.27-5.18c-1.77-1.79-5.04-1.51-7.34-1.31c-2.66,0.23-5.25,0.85-7.83,1.48c-1.04,0.26-2.09,0.52-3.15,0.69
			c-0.31,0.05-0.4,0.07-0.95,0.09c-0.17,0.01-0.34,0-0.5,0.01c-0.16,0-0.33-0.01-0.49-0.03c0.27,0.04,0.26,0.04-0.03-0.01
			c-0.15-0.03-0.3-0.07-0.44-0.11c-0.66-0.19,0.37,0.23-0.23-0.1c0.02,0.01-0.57-0.4-0.32-0.2c0.26,0.21-0.31-0.33-0.28-0.3
			c-0.35-0.42-0.61-0.92-0.69-1.34c0.17,0.87,0.07,0.35,0.07,0.08c0,0.81-0.04,0.39,0.05,0.08c-0.25,0.83-0.03,0.21,0.08-0.03
			c0.07-0.17,0.37-0.37-0.15,0.17c0.1-0.11,0.19-0.23,0.29-0.34c0.18-0.18,0.36-0.35,0.55-0.53c0.07-0.07,0.15-0.13,0.23-0.19
			c0.41-0.36-0.48,0.33-0.01,0.01c0.53-0.36,1.05-0.71,1.61-1.02c0.57-0.32,1.15-0.62,1.75-0.91c0.32-0.15,0.64-0.3,0.96-0.44
			c0.2-0.09,0.4-0.18,0.6-0.26c-0.5,0.21,0.19-0.08,0.23-0.09c3.33-1.33,6.75-2.4,10.21-3.35c3.72-1.02,7.48-1.89,11.27-2.63
			c1.4-0.27,2.8-0.53,4.21-0.74c0.43-0.06,0.74-0.1,0.2-0.03c0.23-0.03,0.45-0.06,0.68-0.08c0.33-0.03,0.67-0.07,1-0.07
			C253.13,44.81,253.14,39.81,249.91,39.83L249.91,39.83z"/>
	</g>
</g>
<g>
	<path class="st1" d="M284.98,169.71c-4.56-1.38-8.73-1.42-25.55,1.48c-16.8,2.9-20.64,4.33-23.15,7.51
		c-0.42,0.53-3.7,4.61-1.65,7.2c1.7,2.15,5.2,2.57,8.28,2.67c7.4,0.23,14.84-0.28,22.1-1.54c1.64-0.28,3.36-0.28,4.94,0.19
		c4.21,1.25,4.04,4.27,3.75,6.91c-1.01,9.19-4.06,16.77-5.07,25.96c-0.04,0.41,2.54,1.98,3.02,2.09c1.37,0.32,3.49,0.25,4.73-0.32
		c6.35-2.91,9.78-6.09,9.78-6.09c0,0,8.82-9.27,9.04-21.86c0.01-0.74,0.07-6.35,0.07-6.35l0,0c0.19-10.34-1.21-12.47-1.21-12.47
		C291.9,171.8,287.72,170.53,284.98,169.71z"/>
	<g>
		<path class="st2" d="M285.65,167.3c-4.52-1.35-9.19-1.07-13.81-0.51c-4.78,0.57-9.53,1.37-14.27,2.2
			c-4.25,0.74-8.51,1.49-12.69,2.56c-4.3,1.1-8.32,2.58-11.03,6.24c-2.29,3.08-3.63,7.48-0.41,10.46c3.63,3.37,9.74,2.91,14.31,2.86
			c5.85-0.07,11.69-0.63,17.46-1.59c1.82-0.3,4.57-0.4,5.77,1.09c-0.26-0.32,0.31,0.67,0.12,0.2c0.06,0.15,0.1,0.31,0.14,0.47
			c0.2,0.73,0-0.25,0.05,0.19c0.08,0.79,0.01,1.6-0.07,2.4C270.7,199,269.32,204,268.14,209c-0.62,2.61-1.18,5.24-1.59,7.89
			c-0.18,1.19-0.66,2.75-0.32,3.93c0.28,1,1.12,1.64,1.92,2.21c1.5,1.08,2.95,1.72,4.82,1.81c2.66,0.14,4.86-0.85,7.16-2.07
			c2.68-1.42,5.59-3.09,7.78-5.23c1.1-1.08,2.02-2.42,2.9-3.67c2.09-2.98,3.76-6.24,4.98-9.66c1.35-3.79,1.89-7.72,1.93-11.73
			c0.04-3.21,0.13-6.42,0.02-9.63c-0.09-2.57-0.19-5.35-1.01-7.81c-0.84-2.52-3.15-4.36-5.43-5.57
			C289.52,168.52,287.58,167.88,285.65,167.3c-3.09-0.93-4.41,3.89-1.33,4.82c1.64,0.5,3.27,1,4.77,1.84
			c0.75,0.42,1.44,0.89,2.05,1.49c0.19,0.19,0.55,0.82,0.78,0.93c0.03,0.01,0.03,0.08,0.05,0.1c0.12,0.09-0.21-0.63-0.16-0.38
			c0.05,0.23,0.16,0.46,0.22,0.68c0.1,0.35,0.18,0.71,0.25,1.07c0.05,0.24,0.08,0.47,0.12,0.71c0.02,0.13,0.04,0.27,0.06,0.4
			c-0.08-0.6,0.02,0.19,0.03,0.25c0.34,3.2,0.3,6.42,0.27,9.64c-0.03,2.88,0.11,5.85-0.38,8.7c-0.63,3.65-1.92,7.13-3.73,10.36
			c-0.72,1.28-1.5,2.53-2.36,3.72c-0.16,0.23-0.33,0.45-0.49,0.67c-0.08,0.1-0.15,0.2-0.23,0.3c0.04-0.05,0.33-0.42,0.07-0.09
			c-0.24,0.31-0.49,0.61-0.75,0.91c-0.19,0.22-0.37,0.43-0.57,0.63c-0.21,0.2-0.44,0.37-0.66,0.55c-0.09,0.07-0.18,0.14-0.27,0.22
			c-0.27,0.22,0.33-0.25,0.02-0.02c-0.3,0.22-0.6,0.45-0.91,0.66c-1.68,1.19-3.46,2.25-5.29,3.19c-1.72,0.89-3.01,1.34-4.95,1.08
			c0.38,0.05,0.23,0.1-0.19-0.14c-0.3-0.17-0.59-0.35-0.87-0.53c-0.14-0.09-0.29-0.19-0.43-0.29c-0.26-0.19,0.21,0-0.03-0.02
			c-0.17-0.01-0.67-0.96,0.12,0.33c0.56,0.92,0.33,0.32,0.4-0.2c0.34-2.52,0.87-5.02,1.44-7.5c1.09-4.76,2.38-9.48,3.1-14.31
			c0.53-3.61,1.3-7.94-1.91-10.59c-4.22-3.48-9.74-1.71-14.6-1.14c-5.35,0.63-10.76,0.88-16.15,0.71c-1.8-0.05-3.8-0.1-5.45-0.91
			c-0.48-0.23-1.09-0.73-1.19-0.97c-0.17-0.41,0.01-1.02,0.32-1.74c0.12-0.28,0.59-1.06,0.89-1.51c0.14-0.21,0.3-0.42,0.45-0.63
			c-0.45,0.64-0.09,0.11,0.03-0.03c0.21-0.24,0.41-0.47,0.63-0.7c0.11-0.11,0.23-0.22,0.35-0.33c0.08-0.08,0.58-0.48,0.22-0.2
			c-0.38,0.3,0.13-0.09,0.21-0.14c0.15-0.1,0.3-0.2,0.45-0.29c0.36-0.22,0.72-0.41,1.1-0.6c0.2-0.09,0.39-0.18,0.59-0.27
			c-0.63,0.28,0.05-0.02,0.22-0.08c0.56-0.22,1.13-0.41,1.7-0.59c3.1-0.97,6.31-1.61,9.5-2.23c4.81-0.93,9.63-1.76,14.47-2.49
			c3.07-0.46,6.15-0.89,9.27-1.03c1.07-0.05,2.14-0.06,3.21,0c0.42,0.02,0.85,0.08,1.27,0.11c0.43,0.03-0.59-0.11,0.07,0.01
			c0.21,0.04,0.42,0.07,0.64,0.11c0.75,0.14,1.49,0.33,2.22,0.55C287.41,173.04,288.73,168.22,285.65,167.3z"/>
	</g>
</g>
</svg>
